<svg width="29" height="21" viewBox="0 0 29 21" fill="none" xmlns="http://www.w3.org/2000/svg">
<path d="M0.5 1.3335L2.72222 1.3335L2.72222 19.6668H0.5L0.5 1.3335Z" fill="#0E0E0E" stroke="black"/>
<path d="M8.60439 1.3335L10.8266 1.3335L10.8266 19.6668H8.60439L8.60439 1.3335Z" fill="#0E0E0E" stroke="black"/>
<path d="M13.4866 1.3335L15.7088 1.3335L15.7088 19.6668H13.4866L13.4866 1.3335Z" fill="#0E0E0E" stroke="black"/>
<path d="M24.7154 1.3335L28.4999 1.3335L28.4999 19.6668H24.7154L24.7154 1.3335Z" fill="#0E0E0E" stroke="black"/>
<path d="M5.38219 1.3335L5.94449 1.3335L5.94449 19.6668H5.38219L5.38219 1.3335Z" fill="#0E0E0E" stroke="black"/>
<path d="M18.271 1.3335L18.8333 1.3335L18.8333 19.6668H18.271L18.271 1.3335Z" fill="#0E0E0E" stroke="black"/>
<path d="M21.4932 1.3335L22.0555 1.3335L22.0555 19.6668H21.4932L21.4932 1.3335Z" fill="#0E0E0E" stroke="black"/>
</svg>
